# xmcd
#
# Track frame offsets: 
#        150
#        28826
#        53484
#        67737
#        88733
#        116867
#        148586
#        179970
#        210680
#        227333
#
# Disc length: 3334 seconds
#
# Revision: 2
# Processed by: cddbd v1.5.2PL0 Copyright (c) Steve Scherf et al.
# Submitted via: ExactAudioCopy v0.90b4
#
DISCID=8c0d040a
DTITLE=Ahmad Jamal - In Search Of 
DYEAR=2003
DGENRE=Jazz
TTITLE0=In Search Of
TTITLE1=Should I
TTITLE2=Excerpts From I'll Take The 20
TTITLE3=Island Fever
TTITLE4=I've Never Been In Love Before
TTITLE5=Where Are You
TTITLE6=Where Are You Now
TTITLE7=You Can See
TTITLE8=Perfidia
TTITLE9=I'll Always Be With You
EXTD=YEAR: 2002
EXTT0=
EXTT1=
EXTT2=
EXTT3=
EXTT4=
EXTT5=
EXTT6=
EXTT7=
EXTT8=
EXTT9=
PLAYORDER=
